<?xml version="1.0" encoding="UTF-8"?>
<svg id="Layer_1" data-name="Layer 1" xmlns="http://www.w3.org/2000/svg" xmlns:xlink="http://www.w3.org/1999/xlink" viewBox="0 0 636 687">
  <defs>
    <style>
      .cls-1 {
        mask: url(#mask-15);
      }

      .cls-2 {
        mask: url(#mask-5);
      }

      .cls-3 {
        mask: url(#mask-13);
      }

      .cls-4 {
        mask: url(#mask-1);
      }

      .cls-5 {
        mask: url(#mask-10);
      }

      .cls-6 {
        mask: url(#mask-6);
      }

      .cls-7 {
        mask: url(#mask-7);
      }

      .cls-8 {
        mask: url(#mask-18);
      }

      .cls-9 {
        fill: #fff;
      }

      .cls-10 {
        mask: url(#mask-17);
      }

      .cls-11 {
        mask: url(#mask);
      }

      .cls-12 {
        mask: url(#mask-20);
      }

      .cls-13 {
        mask: url(#mask-8);
      }

      .cls-14 {
        mask: url(#mask-2);
      }

      .cls-15 {
        mask: url(#mask-9);
      }

      .cls-16 {
        mask: url(#mask-21);
      }

      .cls-17 {
        mask: url(#mask-16);
      }

      .cls-18 {
        mask: url(#mask-19);
      }

      .cls-19 {
        mask: url(#mask-11);
      }

      .cls-20 {
        mask: url(#mask-12);
      }

      .cls-21 {
        mask: url(#mask-4);
      }

      .cls-22 {
        mask: url(#mask-14);
      }

      .cls-23 {
        mask: url(#mask-3);
      }
    </style>
    <mask id="mask" x="452.29" y="235.23" width="35.63" height="208.96" maskUnits="userSpaceOnUse">
      <g id="mask0_328_19613" data-name="mask0 328 19613">
        <path class="cls-9" d="M487.92,235.23h-35.63v208.96h35.63v-208.96Z"/>
      </g>
    </mask>
    <mask id="mask-1" x="452.29" y="235.23" width="35.63" height="208.96" maskUnits="userSpaceOnUse">
      <g id="mask1_328_19613" data-name="mask1 328 19613">
        <path class="cls-9" d="M470.1,235.23c9.84,0,17.82,7.98,17.82,17.81v173.27c0,9.84-7.98,17.81-17.82,17.81s-17.81-7.98-17.81-17.81v-173.27c0-9.84,7.98-17.81,17.81-17.81Z"/>
      </g>
    </mask>
    <mask id="mask-2" x="295.29" y="282.53" width="199.83" height="169.24" maskUnits="userSpaceOnUse">
      <g id="mask2_328_19613" data-name="mask2 328 19613">
        <path class="cls-9" d="M488.74,289.04h-187.13v156.26h187.13v-156.26Z"/>
      </g>
    </mask>
    <mask id="mask-3" x="295.29" y="282.53" width="199.83" height="169.24" maskUnits="userSpaceOnUse">
      <g id="mask3_328_19613" data-name="mask3 328 19613">
        <path class="cls-9" d="M306.31,296.37h0c-6.09,7.66-4.83,18.8,2.83,24.89l150.07,119.45c7.65,6.09,18.79,4.83,24.89-2.83h0c6.09-7.66,4.83-18.8-2.83-24.89l-150.07-119.45c-7.65-6.09-18.79-4.83-24.89,2.83Z"/>
      </g>
    </mask>
    <mask id="mask-4" x="295.29" y="282.53" width="199.83" height="169.24" maskUnits="userSpaceOnUse">
      <g id="mask4_328_19613" data-name="mask4 328 19613">
        <path class="cls-9" d="M306.31,296.38c6.09-7.65,17.24-8.91,24.89-2.83l150.03,119.43c7.65,6.1,8.91,17.24,2.83,24.89-6.1,7.65-17.24,8.92-24.89,2.83l-150.03-119.43c-7.65-6.09-8.92-17.24-2.83-24.89Z"/>
      </g>
    </mask>
    <mask id="mask-5" x="299.91" y="357.46" width="17.14" height="16.46" maskUnits="userSpaceOnUse">
      <g id="mask5_328_19613" data-name="mask5 328 19613">
        <path class="cls-9" d="M317.05,357.46h-17.14v16.46h17.14v-16.46Z"/>
      </g>
    </mask>
    <mask id="mask-6" x="299.91" y="357.46" width="36.21" height="36.21" maskUnits="userSpaceOnUse">
      <g id="mask6_328_19613" data-name="mask6 328 19613">
        <path class="cls-9" d="M299.91,358.91v33.31c0,.8.64,1.45,1.45,1.45h33.31c.8,0,1.45-.65,1.45-1.45v-33.31c0-.39-.15-.76-.42-1.03-.28-.27-.64-.42-1.03-.42h-33.31c-.8,0-1.45.65-1.45,1.45Z"/>
      </g>
    </mask>
    <mask id="mask-7" x="318.98" y="357.46" width="17.11" height="16.46" maskUnits="userSpaceOnUse">
      <g id="mask7_328_19613" data-name="mask7 328 19613">
        <path class="cls-9" d="M336.09,357.46h-17.11v16.46h17.11v-16.46Z"/>
      </g>
    </mask>
    <mask id="mask-8" x="299.91" y="357.46" width="36.21" height="36.21" maskUnits="userSpaceOnUse">
      <g id="mask8_328_19613" data-name="mask8 328 19613">
        <path class="cls-9" d="M299.91,358.91v33.31c0,.8.64,1.45,1.45,1.45h33.31c.8,0,1.45-.65,1.45-1.45v-33.31c0-.39-.15-.76-.42-1.03-.28-.27-.64-.42-1.03-.42h-33.31c-.8,0-1.45.65-1.45,1.45Z"/>
      </g>
    </mask>
    <mask id="mask-9" x="299.91" y="375.86" width="17.14" height="17.78" maskUnits="userSpaceOnUse">
      <g id="mask9_328_19613" data-name="mask9 328 19613">
        <path class="cls-9" d="M317.05,375.86h-17.14v17.77h17.14v-17.77Z"/>
      </g>
    </mask>
    <mask id="mask-10" x="299.91" y="357.46" width="36.21" height="36.21" maskUnits="userSpaceOnUse">
      <g id="mask10_328_19613" data-name="mask10 328 19613">
        <path class="cls-9" d="M299.91,358.91v33.31c0,.8.64,1.45,1.45,1.45h33.31c.8,0,1.45-.65,1.45-1.45v-33.31c0-.39-.15-.76-.42-1.03-.28-.27-.64-.42-1.03-.42h-33.31c-.8,0-1.45.65-1.45,1.45Z"/>
      </g>
    </mask>
    <mask id="mask-11" x="318.98" y="375.86" width="17.11" height="17.78" maskUnits="userSpaceOnUse">
      <g id="mask11_328_19613" data-name="mask11 328 19613">
        <path class="cls-9" d="M336.09,375.86h-17.11v17.77h17.11v-17.77Z"/>
      </g>
    </mask>
    <mask id="mask-12" x="299.91" y="357.46" width="36.21" height="36.21" maskUnits="userSpaceOnUse">
      <g id="mask12_328_19613" data-name="mask12 328 19613">
        <path class="cls-9" d="M299.91,358.91v33.31c0,.8.64,1.45,1.45,1.45h33.31c.8,0,1.45-.65,1.45-1.45v-33.31c0-.39-.15-.76-.42-1.03-.28-.27-.64-.42-1.03-.42h-33.31c-.8,0-1.45.65-1.45,1.45Z"/>
      </g>
    </mask>
    <mask id="mask-13" x="140.93" y="236.31" width="35.64" height="208.96" maskUnits="userSpaceOnUse">
      <g id="mask13_328_19613" data-name="mask13 328 19613">
        <path class="cls-9" d="M176.57,236.31h-35.63v208.96h35.63v-208.96Z"/>
      </g>
    </mask>
    <mask id="mask-14" x="140.93" y="236.31" width="35.64" height="208.96" maskUnits="userSpaceOnUse">
      <g id="mask14_328_19613" data-name="mask14 328 19613">
        <path class="cls-9" d="M158.75,236.31c9.84,0,17.82,7.98,17.82,17.81v173.27c0,9.84-7.98,17.81-17.82,17.81s-17.81-7.98-17.81-17.81v-173.27c0-9.84,7.98-17.81,17.81-17.81Z"/>
      </g>
    </mask>
    <mask id="mask-15" x="218.1" y="283.01" width="125.23" height="111.09" maskUnits="userSpaceOnUse">
      <g id="mask15_328_19613" data-name="mask15 328 19613">
        <path class="cls-9" d="M336.34,289.04h-111.89v98.38h111.89v-98.38Z"/>
      </g>
    </mask>
    <mask id="mask-16" x="218.1" y="283.01" width="125.23" height="111.09" maskUnits="userSpaceOnUse">
      <g id="mask16_328_19613" data-name="mask16 328 19613">
        <path class="cls-9" d="M307.34,294.1l-75.5,61.36c-7.59,6.17-8.74,17.32-2.57,24.91h0c6.17,7.6,17.32,8.75,24.91,2.58l75.5-61.35c7.59-6.17,8.74-17.32,2.57-24.91h0c-6.17-7.6-17.32-8.75-24.91-2.58Z"/>
      </g>
    </mask>
    <mask id="mask-17" x="218.1" y="283.01" width="125.23" height="111.09" maskUnits="userSpaceOnUse">
      <g id="mask17_328_19613" data-name="mask17 328 19613">
        <path class="cls-9" d="M229.26,380.36c-6.16-7.59-5.01-18.74,2.58-24.91l75.45-61.3c7.59-6.17,18.75-5.02,24.91,2.57,6.17,7.6,5.02,18.75-2.58,24.92l-75.44,61.3c-7.59,6.17-18.74,5.02-24.92-2.58Z"/>
      </g>
    </mask>
    <mask id="mask-18" x="140.89" y="236.31" width="139.88" height="36.03" maskUnits="userSpaceOnUse">
      <g id="mask18_328_19613" data-name="mask18 328 19613">
        <path class="cls-9" d="M280.76,236.31h-139.87v36.02h139.87v-36.02Z"/>
      </g>
    </mask>
    <mask id="mask-19" x="140.89" y="236.31" width="139.88" height="36.03" maskUnits="userSpaceOnUse">
      <g id="mask19_328_19613" data-name="mask19 328 19613">
        <path class="cls-9" d="M280.76,254.33c0,4.78-1.9,9.36-5.28,12.74-3.37,3.37-7.96,5.28-12.74,5.28h-103.82c-4.78,0-9.35-1.89-12.74-5.28-3.37-3.37-5.28-7.96-5.28-12.74s1.9-9.36,5.28-12.74c3.38-3.38,7.96-5.28,12.74-5.28h103.82c4.78,0,9.36,1.89,12.74,5.28,3.37,3.37,5.28,7.96,5.28,12.74Z"/>
      </g>
    </mask>
    <mask id="mask-20" x="195.38" y="301" width="36.73" height="36.73" maskUnits="userSpaceOnUse">
      <g id="mask20_328_19613" data-name="mask20 328 19613">
        <path class="cls-9" d="M230.97,302.15h-34.44v34.44h34.44v-34.44Z"/>
      </g>
    </mask>
    <mask id="mask-21" x="195.38" y="301" width="36.73" height="36.73" maskUnits="userSpaceOnUse">
      <g id="mask21_328_19613" data-name="mask21 328 19613">
        <path class="cls-9" d="M215.78,303.04l14.28,14.28c.55.55.84,1.28.84,2.04s-.31,1.51-.84,2.05l-14.28,14.27c-.55.55-1.28.85-2.04.85s-1.51-.31-2.05-.85l-14.27-14.27c-.55-.55-.85-1.28-.85-2.05s.31-1.5.85-2.04l14.27-14.28c.55-.55,1.28-.84,2.05-.84s1.5.31,2.04.84Z"/>
      </g>
    </mask>
  </defs>
  <g class="cls-11">
    <g>
      <path d="M470.1,235.23c9.84,0,17.82,7.98,17.82,17.81v173.27c0,9.84-7.98,17.81-17.82,17.81s-17.81-7.98-17.81-17.81v-173.27c0-9.84,7.98-17.81,17.81-17.81Z"/>
      <g class="cls-4">
        <path d="M452.29,235.23h35.63v208.96h-35.63v-208.96Z"/>
      </g>
    </g>
  </g>
  <g class="cls-14">
    <g>
      <path d="M306.31,296.37h0c-6.09,7.66-4.83,18.8,2.83,24.89l150.07,119.45c7.65,6.09,18.79,4.83,24.89-2.83h0c6.09-7.66,4.83-18.8-2.83-24.89l-150.07-119.45c-7.65-6.09-18.79-4.83-24.89,2.83Z"/>
      <g class="cls-23">
        <g>
          <path d="M306.31,296.38c6.09-7.65,17.24-8.91,24.89-2.83l150.03,119.43c7.65,6.1,8.91,17.24,2.83,24.89-6.1,7.65-17.24,8.92-24.89,2.83l-150.03-119.43c-7.65-6.09-8.92-17.24-2.83-24.89Z"/>
          <g class="cls-21">
            <path d="M295.29,310.25l22.06-27.72,177.77,141.52-22.06,27.72-177.77-141.52Z"/>
          </g>
        </g>
      </g>
    </g>
  </g>
  <g class="cls-2">
    <g class="cls-6">
      <path d="M315.1,357.46h-14.47c-.4,0-.72.32-.72.72v14.47c0,.4.32.72.72.72h14.47c.4,0,.72-.32.72-.72v-14.47c0-.4-.32-.72-.72-.72Z"/>
    </g>
  </g>
  <g class="cls-7">
    <g class="cls-13">
      <path d="M335.36,357.46h-14.47c-.41,0-.72.32-.72.72v14.47c0,.4.31.72.72.72h14.47c.4,0,.72-.32.72-.72v-14.47c0-.4-.32-.72-.72-.72Z"/>
    </g>
  </g>
  <g class="cls-15">
    <g class="cls-5">
      <path d="M315.1,377.73h-14.47c-.4,0-.72.32-.72.72v14.47c0,.4.32.72.72.72h14.47c.4,0,.72-.32.72-.72v-14.47c0-.4-.32-.72-.72-.72Z"/>
    </g>
  </g>
  <g class="cls-19">
    <g class="cls-20">
      <path d="M335.36,377.73h-14.47c-.41,0-.72.32-.72.72v14.47c0,.4.31.72.72.72h14.47c.4,0,.72-.32.72-.72v-14.47c0-.4-.32-.72-.72-.72Z"/>
    </g>
  </g>
  <g class="cls-3">
    <g>
      <path d="M158.75,236.31c9.84,0,17.82,7.98,17.82,17.81v173.27c0,9.84-7.98,17.81-17.82,17.81s-17.81-7.98-17.81-17.81v-173.27c0-9.84,7.98-17.81,17.81-17.81Z"/>
      <g class="cls-22">
        <path d="M140.93,236.31h35.63v208.96h-35.63v-208.96Z"/>
      </g>
    </g>
  </g>
  <g class="cls-1">
    <g>
      <path d="M307.34,294.1l-75.5,61.36c-7.59,6.17-8.74,17.32-2.57,24.91h0c6.17,7.6,17.32,8.75,24.91,2.58l75.5-61.35c7.59-6.17,8.74-17.32,2.57-24.91h0c-6.17-7.6-17.32-8.75-24.91-2.58Z"/>
      <g class="cls-17">
        <g>
          <path d="M229.26,380.36c-6.16-7.59-5.01-18.74,2.58-24.91l75.45-61.3c7.59-6.17,18.75-5.02,24.91,2.57,6.17,7.6,5.02,18.75-2.58,24.92l-75.44,61.3c-7.59,6.17-18.74,5.02-24.92-2.58Z"/>
          <g class="cls-10">
            <path d="M240.44,394.1l-22.34-27.49,102.89-83.6,22.34,27.49-102.89,83.6Z"/>
          </g>
        </g>
      </g>
    </g>
  </g>
  <g class="cls-8">
    <g>
      <path d="M280.76,254.33c0,4.78-1.9,9.36-5.28,12.74-3.37,3.37-7.96,5.28-12.74,5.28h-103.82c-4.78,0-9.35-1.89-12.74-5.28-3.37-3.37-5.28-7.96-5.28-12.74s1.9-9.36,5.28-12.74c3.38-3.38,7.96-5.28,12.74-5.28h103.82c4.78,0,9.36,1.89,12.74,5.28,3.37,3.37,5.28,7.96,5.28,12.74Z"/>
      <g class="cls-18">
        <path d="M280.76,236.31v36.02h-139.88v-36.02h139.88Z"/>
      </g>
    </g>
  </g>
  <g class="cls-12">
    <g>
      <path d="M215.78,303.04l14.28,14.28c.55.55.84,1.28.84,2.04s-.31,1.51-.84,2.05l-14.28,14.27c-.55.55-1.28.85-2.04.85s-1.51-.31-2.05-.85l-14.27-14.27c-.55-.55-.85-1.28-.85-2.05s.31-1.5.85-2.04l14.27-14.28c.55-.55,1.28-.84,2.05-.84s1.5.31,2.04.84Z"/>
      <g class="cls-16">
        <path d="M195.38,301h36.73v36.73h-36.73v-36.73Z"/>
      </g>
    </g>
  </g>
</svg>